<mxfile host="app.diagrams.net" modified="2021-07-02T14:43:09.764Z" agent="5.0 (Windows NT 10.0; Win64; x64) AppleWebKit/537.36 (KHTML, like Gecko) Chrome/91.0.4472.124 Safari/537.36" etag="Mu-rLFZjAJFgqOCyH6s1" version="14.8.3" type="github">
  <diagram id="C5RBs43oDa-KdzZeNtuy" name="Page-1">
    <mxGraphModel dx="918" dy="464" grid="0" gridSize="10" guides="1" tooltips="1" connect="1" arrows="1" fold="1" page="1" pageScale="1" pageWidth="827" pageHeight="1169" math="0" shadow="0">
      <root>
        <mxCell id="WIyWlLk6GJQsqaUBKTNV-0" />
        <mxCell id="WIyWlLk6GJQsqaUBKTNV-1" parent="WIyWlLk6GJQsqaUBKTNV-0" />
        <mxCell id="WIyWlLk6GJQsqaUBKTNV-9" value="Yes" style="edgeStyle=orthogonalEdgeStyle;rounded=0;html=1;jettySize=auto;orthogonalLoop=1;fontSize=11;endArrow=block;endFill=0;endSize=8;strokeWidth=1;shadow=0;labelBackgroundColor=none;exitX=1;exitY=0.5;exitDx=0;exitDy=0;entryX=0;entryY=0.5;entryDx=0;entryDy=0;" parent="WIyWlLk6GJQsqaUBKTNV-1" source="WIyWlLk6GJQsqaUBKTNV-10" target="QoOrXVx86Krfp8fyNIvu-10" edge="1">
          <mxGeometry y="10" relative="1" as="geometry">
            <mxPoint as="offset" />
            <mxPoint x="542" y="125" as="targetPoint" />
          </mxGeometry>
        </mxCell>
        <mxCell id="QoOrXVx86Krfp8fyNIvu-43" value="" style="edgeStyle=orthogonalEdgeStyle;rounded=0;orthogonalLoop=1;jettySize=auto;html=1;shadow=0;labelBackgroundColor=none;endArrow=block;endFill=0;endSize=8;strokeWidth=1;" edge="1" parent="WIyWlLk6GJQsqaUBKTNV-1" source="WIyWlLk6GJQsqaUBKTNV-3" target="QoOrXVx86Krfp8fyNIvu-22">
          <mxGeometry relative="1" as="geometry" />
        </mxCell>
        <mxCell id="WIyWlLk6GJQsqaUBKTNV-3" value="开始" style="rounded=1;whiteSpace=wrap;html=1;fontSize=12;glass=0;strokeWidth=1;shadow=0;" parent="WIyWlLk6GJQsqaUBKTNV-1" vertex="1">
          <mxGeometry x="20" y="150" width="50" height="130" as="geometry" />
        </mxCell>
        <mxCell id="WIyWlLk6GJQsqaUBKTNV-8" value="No" style="rounded=0;html=1;jettySize=auto;orthogonalLoop=1;fontSize=11;endArrow=block;endFill=0;endSize=8;strokeWidth=1;shadow=0;labelBackgroundColor=none;edgeStyle=orthogonalEdgeStyle;exitX=0.5;exitY=1;exitDx=0;exitDy=0;entryX=0;entryY=0.5;entryDx=0;entryDy=0;" parent="WIyWlLk6GJQsqaUBKTNV-1" source="WIyWlLk6GJQsqaUBKTNV-10" target="QoOrXVx86Krfp8fyNIvu-13" edge="1">
          <mxGeometry x="0.3333" y="20" relative="1" as="geometry">
            <mxPoint as="offset" />
            <mxPoint x="292" y="265" as="sourcePoint" />
            <mxPoint x="352" y="415" as="targetPoint" />
          </mxGeometry>
        </mxCell>
        <mxCell id="WIyWlLk6GJQsqaUBKTNV-10" value="T&amp;lt;目标时间？" style="rhombus;whiteSpace=wrap;html=1;shadow=0;fontFamily=Helvetica;fontSize=12;align=center;strokeWidth=1;spacing=6;spacingTop=-4;" parent="WIyWlLk6GJQsqaUBKTNV-1" vertex="1">
          <mxGeometry x="259" y="167.5" width="100" height="95" as="geometry" />
        </mxCell>
        <mxCell id="WIyWlLk6GJQsqaUBKTNV-11" value="结束" style="rounded=1;whiteSpace=wrap;html=1;fontSize=12;glass=0;strokeWidth=1;shadow=0;" parent="WIyWlLk6GJQsqaUBKTNV-1" vertex="1">
          <mxGeometry x="562" y="295" width="60" height="120" as="geometry" />
        </mxCell>
        <mxCell id="QoOrXVx86Krfp8fyNIvu-45" value="" style="edgeStyle=orthogonalEdgeStyle;rounded=0;orthogonalLoop=1;jettySize=auto;html=1;shadow=0;labelBackgroundColor=none;endArrow=block;endFill=0;endSize=8;strokeWidth=1;" edge="1" parent="WIyWlLk6GJQsqaUBKTNV-1" source="QoOrXVx86Krfp8fyNIvu-2" target="WIyWlLk6GJQsqaUBKTNV-10">
          <mxGeometry relative="1" as="geometry" />
        </mxCell>
        <mxCell id="QoOrXVx86Krfp8fyNIvu-2" value="1.设置各物理参数初值；&lt;br&gt;2.计算时间T为0s时C的值；&lt;br&gt;3.设置L矩阵" style="rounded=0;whiteSpace=wrap;html=1;" vertex="1" parent="WIyWlLk6GJQsqaUBKTNV-1">
          <mxGeometry x="169" y="149" width="70" height="130" as="geometry" />
        </mxCell>
        <mxCell id="QoOrXVx86Krfp8fyNIvu-32" value="" style="edgeStyle=orthogonalEdgeStyle;rounded=0;orthogonalLoop=1;jettySize=auto;html=1;shadow=0;labelBackgroundColor=none;endArrow=block;endFill=0;endSize=8;strokeWidth=1;" edge="1" parent="WIyWlLk6GJQsqaUBKTNV-1" source="QoOrXVx86Krfp8fyNIvu-10" target="QoOrXVx86Krfp8fyNIvu-27">
          <mxGeometry relative="1" as="geometry" />
        </mxCell>
        <mxCell id="QoOrXVx86Krfp8fyNIvu-10" value="计算此时的C值、Fc；再通过ETD算法，由C和Fc计算出C1" style="rounded=0;whiteSpace=wrap;html=1;" vertex="1" parent="WIyWlLk6GJQsqaUBKTNV-1">
          <mxGeometry x="398" y="149" width="67" height="130" as="geometry" />
        </mxCell>
        <mxCell id="QoOrXVx86Krfp8fyNIvu-16" value="" style="edgeStyle=orthogonalEdgeStyle;rounded=0;orthogonalLoop=1;jettySize=auto;html=1;shadow=0;labelBackgroundColor=none;endArrow=block;endFill=0;endSize=8;strokeWidth=1;" edge="1" parent="WIyWlLk6GJQsqaUBKTNV-1" source="QoOrXVx86Krfp8fyNIvu-13" target="WIyWlLk6GJQsqaUBKTNV-11">
          <mxGeometry relative="1" as="geometry" />
        </mxCell>
        <mxCell id="QoOrXVx86Krfp8fyNIvu-13" value="保存最终时刻的C值和计算时间" style="rounded=0;whiteSpace=wrap;html=1;" vertex="1" parent="WIyWlLk6GJQsqaUBKTNV-1">
          <mxGeometry x="462" y="295" width="60" height="120" as="geometry" />
        </mxCell>
        <mxCell id="QoOrXVx86Krfp8fyNIvu-46" style="edgeStyle=orthogonalEdgeStyle;rounded=0;orthogonalLoop=1;jettySize=auto;html=1;entryX=0.5;entryY=0;entryDx=0;entryDy=0;shadow=0;labelBackgroundColor=none;endArrow=block;endFill=0;endSize=8;strokeWidth=1;" edge="1" parent="WIyWlLk6GJQsqaUBKTNV-1" source="QoOrXVx86Krfp8fyNIvu-19" target="WIyWlLk6GJQsqaUBKTNV-10">
          <mxGeometry relative="1" as="geometry">
            <Array as="points">
              <mxPoint x="739" y="215" />
              <mxPoint x="739" y="36" />
              <mxPoint x="309" y="36" />
            </Array>
          </mxGeometry>
        </mxCell>
        <mxCell id="QoOrXVx86Krfp8fyNIvu-19" value="T增加△t" style="rounded=0;whiteSpace=wrap;html=1;" vertex="1" parent="WIyWlLk6GJQsqaUBKTNV-1">
          <mxGeometry x="638" y="151" width="60" height="128" as="geometry" />
        </mxCell>
        <mxCell id="QoOrXVx86Krfp8fyNIvu-30" value="" style="edgeStyle=orthogonalEdgeStyle;rounded=0;orthogonalLoop=1;jettySize=auto;html=1;shadow=0;labelBackgroundColor=none;endArrow=block;endFill=0;endSize=8;strokeWidth=1;" edge="1" parent="WIyWlLk6GJQsqaUBKTNV-1" source="QoOrXVx86Krfp8fyNIvu-22" target="QoOrXVx86Krfp8fyNIvu-2">
          <mxGeometry relative="1" as="geometry" />
        </mxCell>
        <mxCell id="QoOrXVx86Krfp8fyNIvu-44" value="" style="edgeStyle=orthogonalEdgeStyle;rounded=0;orthogonalLoop=1;jettySize=auto;html=1;shadow=0;labelBackgroundColor=none;endArrow=block;endFill=0;endSize=8;strokeWidth=1;" edge="1" parent="WIyWlLk6GJQsqaUBKTNV-1" source="QoOrXVx86Krfp8fyNIvu-22" target="QoOrXVx86Krfp8fyNIvu-2">
          <mxGeometry relative="1" as="geometry" />
        </mxCell>
        <mxCell id="QoOrXVx86Krfp8fyNIvu-22" value="为每个进程划分节点。" style="rounded=0;whiteSpace=wrap;html=1;fillColor=#fff2cc;strokeColor=#d6b656;" vertex="1" parent="WIyWlLk6GJQsqaUBKTNV-1">
          <mxGeometry x="92" y="149" width="60" height="132" as="geometry" />
        </mxCell>
        <mxCell id="QoOrXVx86Krfp8fyNIvu-35" value="" style="edgeStyle=orthogonalEdgeStyle;rounded=0;orthogonalLoop=1;jettySize=auto;html=1;shadow=0;labelBackgroundColor=none;endArrow=block;endFill=0;endSize=8;strokeWidth=1;" edge="1" parent="WIyWlLk6GJQsqaUBKTNV-1" source="QoOrXVx86Krfp8fyNIvu-27" target="QoOrXVx86Krfp8fyNIvu-34">
          <mxGeometry relative="1" as="geometry" />
        </mxCell>
        <mxCell id="QoOrXVx86Krfp8fyNIvu-38" value="" style="edgeStyle=orthogonalEdgeStyle;rounded=0;orthogonalLoop=1;jettySize=auto;html=1;shadow=0;labelBackgroundColor=none;endArrow=block;endFill=0;endSize=8;strokeWidth=1;" edge="1" parent="WIyWlLk6GJQsqaUBKTNV-1" source="QoOrXVx86Krfp8fyNIvu-27" target="QoOrXVx86Krfp8fyNIvu-19">
          <mxGeometry relative="1" as="geometry" />
        </mxCell>
        <mxCell id="QoOrXVx86Krfp8fyNIvu-27" value="&lt;span&gt;各进程重叠部分C1的值误差&amp;gt;ε？&lt;/span&gt;" style="rhombus;whiteSpace=wrap;html=1;rounded=0;strokeColor=#d6b656;fillColor=#fff2cc;" vertex="1" parent="WIyWlLk6GJQsqaUBKTNV-1">
          <mxGeometry x="492" y="162" width="107" height="104" as="geometry" />
        </mxCell>
        <mxCell id="QoOrXVx86Krfp8fyNIvu-40" style="edgeStyle=orthogonalEdgeStyle;rounded=0;orthogonalLoop=1;jettySize=auto;html=1;exitX=1;exitY=0.5;exitDx=0;exitDy=0;shadow=0;labelBackgroundColor=none;endArrow=block;endFill=0;endSize=8;strokeWidth=1;" edge="1" parent="WIyWlLk6GJQsqaUBKTNV-1" source="QoOrXVx86Krfp8fyNIvu-34" target="QoOrXVx86Krfp8fyNIvu-19">
          <mxGeometry relative="1" as="geometry" />
        </mxCell>
        <mxCell id="QoOrXVx86Krfp8fyNIvu-34" value="进行Swartz迭代，直到满足跳出迭代的条件" style="whiteSpace=wrap;html=1;rounded=0;strokeColor=#d6b656;fillColor=#fff2cc;" vertex="1" parent="WIyWlLk6GJQsqaUBKTNV-1">
          <mxGeometry x="485.5" y="46" width="120" height="60" as="geometry" />
        </mxCell>
        <mxCell id="QoOrXVx86Krfp8fyNIvu-37" value="Yes" style="text;html=1;align=center;verticalAlign=middle;resizable=0;points=[];autosize=1;strokeColor=none;" vertex="1" parent="WIyWlLk6GJQsqaUBKTNV-1">
          <mxGeometry x="550" y="131" width="30" height="18" as="geometry" />
        </mxCell>
        <mxCell id="QoOrXVx86Krfp8fyNIvu-39" value="No" style="text;html=1;align=center;verticalAlign=middle;resizable=0;points=[];autosize=1;strokeColor=none;" vertex="1" parent="WIyWlLk6GJQsqaUBKTNV-1">
          <mxGeometry x="603" y="198" width="25" height="18" as="geometry" />
        </mxCell>
      </root>
    </mxGraphModel>
  </diagram>
</mxfile>
